<svg xmlns="http://www.w3.org/2000/svg" fill="none" viewBox="0 0 20 20">
    <path fill="#6097AA" d="M10 12.98c.944 0 1.746-.33 2.406-.99.66-.66.99-1.462.99-2.407 0-.944-.33-1.746-.99-2.405-.66-.66-1.462-.99-2.406-.99-.945 0-1.747.33-2.406.99-.66.659-.99 1.46-.99 2.405 0 .945.33 1.747.99 2.406.66.66 1.461.99 2.406.99Zm0-1.147a2.168 2.168 0 0 1-1.594-.656 2.168 2.168 0 0 1-.656-1.594c0-.625.219-1.156.656-1.594A2.17 2.17 0 0 1 10 7.333c.625 0 1.156.219 1.594.656.437.438.656.97.656 1.594a2.17 2.17 0 0 1-.656 1.594 2.17 2.17 0 0 1-1.594.656m0 3.584c-1.917 0-3.663-.528-5.24-1.584-1.576-1.055-2.732-2.472-3.468-4.25.736-1.777 1.892-3.194 3.469-4.25C6.337 4.278 8.083 3.75 10 3.75c1.916 0 3.663.528 5.24 1.583 1.576 1.056 2.732 2.473 3.468 4.25-.736 1.778-1.892 3.195-3.468 4.25-1.577 1.056-3.324 1.584-5.24 1.584Zm0-1.25c1.57 0 3.01-.414 4.323-1.24a8.143 8.143 0 0 0 3.01-3.344 8.148 8.148 0 0 0-3.01-3.344A7.958 7.958 0 0 0 10 5c-1.57 0-3.01.413-4.324 1.24a8.148 8.148 0 0 0-3.01 3.343 8.142 8.142 0 0 0 3.01 3.344A7.955 7.955 0 0 0 10 14.167"/>
</svg>
